<svg width="34" height="34" viewBox="0 0 34 34" fill="none" xmlns="http://www.w3.org/2000/svg">
<path d="M17 17C20.912 17 24.0833 13.8287 24.0833 9.91671C24.0833 6.00469 20.912 2.83337 17 2.83337C13.088 2.83337 9.91667 6.00469 9.91667 9.91671C9.91667 13.8287 13.088 17 17 17Z" stroke="white" stroke-width="2"/>
<path d="M24.0833 19.8334H24.582C25.6177 19.8337 26.6176 20.2121 27.394 20.8977C28.1703 21.5832 28.6696 22.5287 28.798 23.5564L29.3519 27.982C29.4017 28.3807 29.3662 28.7855 29.2476 29.1694C29.1291 29.5533 28.9303 29.9076 28.6643 30.2088C28.3984 30.5099 28.0714 30.7511 27.7051 30.9163C27.3388 31.0814 26.9416 31.1668 26.5398 31.1667H7.46017C7.05838 31.1668 6.66116 31.0814 6.29489 30.9163C5.92861 30.7511 5.60165 30.5099 5.3357 30.2088C5.06976 29.9076 4.87091 29.5533 4.75236 29.1694C4.63381 28.7855 4.59827 28.3807 4.64809 27.982L5.20059 23.5564C5.32907 22.5282 5.82876 21.5824 6.60568 20.8968C7.38261 20.2111 8.38324 19.833 9.41942 19.8334H9.91667" stroke="white" stroke-width="2" stroke-linecap="round" stroke-linejoin="round"/>
</svg>
